<?xml version="1.0" encoding="UTF-8" standalone="no"?>
<!-- Created with Inkscape (http://www.inkscape.org/) -->

<svg
   version="1.1"
   id="svg1"
   width="653.33331"
   height="637.33331"
   viewBox="0 0 653.33331 637.33331"
   xml:space="preserve"
   xmlns:xlink="http://www.w3.org/1999/xlink"
   xmlns="http://www.w3.org/2000/svg"
   xmlns:svg="http://www.w3.org/2000/svg"><defs
     id="defs1"><linearGradient
       id="linearGradient13"><stop
         style="stop-color:#2e63a3;stop-opacity:0.99607843;"
         offset="0"
         id="stop13" /><stop
         style="stop-color:#21bbb9;stop-opacity:1;"
         offset="1"
         id="stop14" /></linearGradient><linearGradient
       id="linearGradient11"><stop
         style="stop-color:#78e0d1;stop-opacity:1;"
         offset="0"
         id="stop11" /><stop
         style="stop-color:#50afdf;stop-opacity:1;"
         offset="1"
         id="stop12" /></linearGradient><linearGradient
       id="linearGradient9"><stop
         style="stop-color:#327dc8;stop-opacity:1;"
         offset="0"
         id="stop9" /><stop
         style="stop-color:#83cbe9;stop-opacity:1;"
         offset="1"
         id="stop10" /></linearGradient><linearGradient
       xlink:href="#linearGradient9"
       id="linearGradient10"
       x1="295.07666"
       y1="-418.16879"
       x2="367.09033"
       y2="-776.30078"
       gradientUnits="userSpaceOnUse" /><linearGradient
       xlink:href="#linearGradient11"
       id="linearGradient12"
       x1="200.1971"
       y1="-730.35858"
       x2="251.48668"
       y2="-381.12427"
       gradientUnits="userSpaceOnUse" /><linearGradient
       xlink:href="#linearGradient13"
       id="linearGradient14"
       x1="600.66699"
       y1="45.062729"
       x2="59.339535"
       y2="603.3927"
       gradientUnits="userSpaceOnUse" /><filter
       style="color-interpolation-filters:sRGB"
       id="filter17"
       x="-0.15257964"
       y="-0.14671545"
       width="1.3051578"
       height="1.2934307"><feGaussianBlur
         stdDeviation="28.566575"
         id="feGaussianBlur17" /></filter></defs><g
     id="g1"><path
       style="fill:url(#linearGradient14);fill-opacity:1"
       d="m 162.03645,634.98297 c -12.4667,-0.54254 -28.9667,-1.8931 -36.6667,-3.00125 C 65.584451,623.3777 25.255151,588.37479 9.4837508,531.40104 1.2095508,501.51074 0.08685081,473.58259 0.07325081,297.30275 0.06125081,144.03259 0.51145081,131.05534 6.6666508,107.18702 18.822251,60.050309 51.449651,25.192269 96.801651,10.889599 129.02105,0.72856932 138.08895,0.36355932 342.70315,0.99120932 c 156.4231,0.47982998 176.6995,0.77845998 188,2.76882998 40.1328,7.0686397 68.6841,22.6344697 89.7032,48.9051097 10.9343,13.66612 16.8867,24.82206 22.8282,42.78392 9.762,29.512111 9.326,20.528531 9.8622,203.187011 0.4887,166.46292 0.1248,183.6893 -4.5201,213.99999 -5.0755,33.11996 -15.5868,56.63934 -34.3849,76.93706 -14.8607,16.04632 -33.9581,27.99601 -56.822,35.55496 -32.4154,10.71676 -56.0699,11.85769 -234,11.28648 -76.2666,-0.24484 -148.8666,-0.88906 -161.3333,-1.4316 z"
       id="path4" /><path
       id="path14"
       style="opacity:1;fill:#2d68a2;fill-opacity:1;stroke:#000000;stroke-width:0.1;filter:url(#filter17)"
       d="m 300.23064,84.884108 c -1.10673,0.0589 -2.21736,0.18799 -3.50195,0.37305 -11.7471,1.69233 -21.03799,8.32137 -26.61718,18.990232 -3.1217,5.96948 -3.65589,8.10601 -6.9668,27.78906 -1.4205,8.44461 -2.65805,15.39647 -2.74805,15.44727 -0.0899,0.0509 -28.94898,4.50865 -64.13281,9.90625 -35.18375,5.39758 -65.29853,10.17863 -66.91992,10.625 -8.12921,2.23804 -17.98809,9.79953 -22.24219,17.05859 -4.86927,8.30879 -6.43582,19.7541 -4.39453,32.12695 0.45876,2.78069 7.74588,51.25563 16.19336,107.72071 8.44749,56.46505 18.70686,124.51474 22.79883,151.22265 7.18074,46.86772 7.54204,48.76511 10.35156,54.44922 5.66412,11.45958 15.7934,19.16023 27.96484,21.25977 6.26658,1.08094 8.50558,0.9322 25.11915,-1.66602 8.81546,-1.37866 44.08449,-6.81699 78.37499,-12.08398 108.1641,-16.6139 115.42619,-17.79545 120.53516,-19.61719 6.50702,-2.32024 10.6382,-4.98411 15.35937,-9.9082 l 3.84571,-4.01172 8.99023,2.03125 c 14.22502,3.21514 17.98463,3.64288 24.64453,2.80664 14.55421,-1.82749 26.88091,-12.08401 31.51367,-26.22461 0.88033,-2.6871 3.10151,-12.55497 4.93555,-21.92773 1.83399,-9.37274 8.3795,-42.47828 14.54688,-73.56836 6.16742,-31.09006 17.42545,-88.1375 25.01757,-126.77149 7.59211,-38.63399 14.90503,-75.84075 16.25196,-82.68164 2.77592,-14.09863 2.99136,-18.80283 1.17578,-25.77344 -3.65713,-14.04041 -15.06483,-24.80274 -29.90039,-28.21093 -4.69911,-1.07953 -157.71196,-29.108672 -205.73633,-37.687502 -7.85181,-1.40261 -11.13878,-1.85056 -14.45899,-1.67383 z" /><g
       id="g9"
       transform="translate(49.794763,899.22977)"><path
         id="path9"
         style="fill:url(#linearGradient10);stroke:#000000;stroke-width:0.1"
         d="m 228.68328,-791.06344 22.00502,-18.77708 225.23992,41.20638 17.90132,28.64455 -62.50408,321.3399 -20.19886,18.44987 -226.11888,-37.02909 -18.8945,-27.31087 z" /><path
         id="rect9"
         style="fill:url(#linearGradient12);stroke:#000000;stroke-width:0.1"
         d="m 60.110509,-698.92126 14.621393,-24.96025 226.284488,-35.01881 26.31265,21.18046 46.44903,324.05028 -13.02276,24.05825 -225.74342,39.25314 -26.81297,-19.59466 z" /><path
         id="path8"
         style="fill:#f9f9f9;fill-opacity:1"
         d="m 250.43555,-814.3457 c 3.32021,-0.17673 6.60716,0.27121 14.45898,1.67382 48.02442,8.57884 201.03722,36.60797 205.73633,37.6875 14.83558,3.4082 26.24326,14.17051 29.90039,28.21094 1.81558,6.97061 1.60015,11.67479 -1.17578,25.77344 -1.34693,6.84089 -8.65984,44.04761 -16.25195,82.68164 -7.59213,38.63403 -18.85015,95.68139 -25.01758,126.77148 -6.16738,31.09011 -12.71289,64.19561 -14.54688,73.56836 -1.83404,9.37277 -4.05521,19.24064 -4.93554,21.92774 -4.63277,14.14061 -16.95946,24.39712 -31.51368,26.22461 -6.65991,0.83624 -10.4195,0.4085 -24.64453,-2.80664 l -8.99023,-2.03125 -3.8457,4.01172 c -4.72118,4.9241 -8.85235,7.58796 -15.35938,9.9082 -5.10897,1.82174 -12.37095,3.00327 -120.53516,19.61719 -34.29054,5.267 -69.55953,10.70532 -78.375,12.08398 -16.61358,2.59822 -18.85256,2.74696 -25.11914,1.66602 -12.17146,-2.09954 -22.30072,-9.80018 -27.96484,-21.25977 -2.809525,-5.68412 -3.17081,-7.58146 -10.351563,-54.44922 -4.091976,-26.70794 -14.351327,-94.75754 -22.798828,-151.22265 -8.447492,-56.46513 -15.7346,-104.94002 -16.19336,-107.72071 -2.041298,-12.37287 -0.474744,-23.81815 4.394532,-32.12695 4.254105,-7.25907 14.112965,-14.82055 22.242187,-17.05859 1.621389,-0.44637 31.736132,-5.22741 66.919922,-10.625 35.18386,-5.3976 64.0429,-9.85537 64.13281,-9.90625 0.09,-0.0508 1.32755,-7.00265 2.74805,-15.44727 3.31091,-19.68307 3.8451,-21.81957 6.9668,-27.78906 5.5792,-10.66887 14.87007,-17.2979 26.61718,-18.99024 1.28459,-0.18506 2.39522,-0.31414 3.50196,-0.37304 z m 0.63281,13.61914 c -4.29648,0.004 -6.14148,0.92935 -9.16016,2.40625 -8.68971,4.25149 -11.68204,10.16828 -15.13086,29.90625 -1.35808,7.77252 -2.4102,14.18664 -2.33789,14.25586 0.0723,0.0692 10.79185,-1.50662 23.82227,-3.50196 49.30446,-7.54999 47.96709,-7.39368 54.41601,-6.29492 14.57929,2.48401 25.97271,11.9037 31.27539,25.85938 0.97161,2.55697 4.24694,22.86052 8.61524,53.40625 8.17001,57.12899 25.58086,177.66684 32.85156,227.43359 2.7594,18.88755 5.26104,36.66966 4.98828,39.48633 -2.10862,13.89659 -3.71522,11.11651 8.79883,13.85547 13.78245,3.04676 22.19437,1.62512 29.75195,-5.02735 5.97449,-5.25894 7.60294,-9.65051 12.1836,-32.85547 2.24804,-11.38791 10.63256,-53.81058 18.63086,-94.27343 7.9983,-40.46286 19.43407,-98.44534 25.41211,-128.84961 5.97803,-30.4043 11.41979,-57.78556 12.09375,-60.84766 3.63255,-16.50521 -1.20885,-28.99244 -13.38868,-34.5332 -2.82291,-1.2842 -20.31695,-4.81293 -56.46093,-11.39063 -28.80407,-5.24194 -77.24804,-14.07282 -107.65235,-19.62304 -37.57618,-6.85943 -51.54819,-9.41818 -58.70898,-9.41211 z m 47.92773,49.5 c -5.00235,-0.0887 -22.93077,2.77786 -126.38086,18.6289 -97.613345,14.95673 -94.932855,14.39992 -100.652339,20.91407 -1.470969,1.67533 -3.636278,5.12075 -4.810547,7.65625 -3.683817,7.95411 -5.783281,-8.17198 28.646484,219.91211 15.520582,102.81811 16.008372,105.8104 17.792972,109.30859 3.44277,6.7483 9.67802,12.06938 16.6289,14.19141 4.67593,1.42749 13.42786,0.46132 56.61133,-6.25196 24.871,-3.86642 68.41295,-10.60666 96.75977,-14.97851 73.46844,-11.3308 69.16352,-10.35886 75.96484,-17.16016 8.13652,-8.13654 8.99346,-14.91477 5.18945,-41.05078 -1.39742,-9.60135 -5.15742,-35.41342 -8.35547,-57.35938 -3.19813,-21.94595 -8.45751,-58.0442 -11.6875,-80.21875 -3.23004,-22.17456 -9.43439,-65.19337 -13.7871,-95.59765 -4.35267,-30.40429 -8.45992,-57.21989 -9.12891,-59.58985 -2.45744,-8.70575 -10.1725,-15.74317 -19.4082,-17.70312 -1.48379,-0.31488 -1.71536,-0.6716 -3.38282,-0.70117 z m -92.08789,117.89453 c 8.2599,0.10924 15.31104,9.99278 10.07422,18.12109 -3.28753,5.10277 -11.08513,6.67814 -16.1875,3.26953 -7.46499,-4.98694 -7.29194,-15.11148 0.33789,-19.76367 1.89858,-1.15764 3.86926,-1.65216 5.77539,-1.62695 z m 40.04688,7.53711 c 3.61434,0.18958 7.24822,2.06661 9.625,5.96484 2.91832,4.78639 1.85346,10.31981 -2.82813,14.69336 -3.0167,2.81817 -9.84582,3.31463 -13.55468,0.98438 -3.37052,-2.11766 -5.23438,-5.70131 -5.23438,-10.0586 0,-7.52664 5.96828,-11.89995 11.99219,-11.58398 z m -75.58594,9.7832 c 8.63616,0 14.52054,9.25833 10.64258,16.7461 -3.14462,6.07173 -10.11829,8.29539 -16.0586,5.11914 -10.59484,-5.66501 -6.582,-21.86524 5.41602,-21.86524 z m 98.00586,20.46484 c 3.59597,-0.6746 9.2195,1.67739 11.42969,4.78126 6.93236,9.73564 -3.79192,22.94831 -14.23633,17.53906 -10.01396,-5.18634 -8.11777,-20.27088 2.80664,-22.32032 z m -116.11914,14.88477 c 6.42087,-0.78363 12.71307,4.99564 12.70703,11.67188 -0.008,8.69354 -9.1425,14.59271 -16.60742,10.72656 -10.56815,-5.47338 -7.871,-20.9618 3.90039,-22.39844 z m 120.83398,23.91602 c 2.69421,0.11676 4.91063,1.34031 7.57618,4.00586 2.77048,2.77048 3.17382,3.66551 3.17382,7.05273 0,4.82089 -1.77324,8.37085 -5.23632,10.48242 -3.49514,2.1311 -9.36264,2.13108 -12.59375,0.002 -2.90703,-1.91627 -5.36354,-6.18812 -5.41211,-9.41407 -0.0843,-5.59816 4.17413,-10.8701 9.60351,-11.88867 1.0386,-0.19484 1.99061,-0.27915 2.88867,-0.24023 z m -111.32617,14.91211 c 2.16983,0.0306 4.31113,0.49855 5.85352,1.39843 3.00708,1.75446 5.66244,6.61584 5.6582,10.35938 -0.009,8.25332 -9.59513,13.86552 -17.24219,10.0957 -7.85235,-3.87109 -8.03224,-16.61792 -0.29101,-20.62109 1.65306,-0.85483 3.85165,-1.26303 6.02148,-1.23242 z m 91.08399,16.99609 c 1.93036,-0.0768 3.97411,0.36239 5.99218,1.4082 10.57982,5.48273 7.91874,20.62841 -3.85546,21.94336 -1.73192,0.19342 -4.29123,-0.16371 -5.68555,-0.79492 -4.34585,-1.96737 -7.02505,-5.9247 -7.02149,-10.36914 0.006,-7.08167 4.77922,-11.95713 10.57032,-12.1875 z m -66.25196,9.78906 c 6.37674,-0.40659 12.45313,4.79396 12.45313,11.45117 0,3.43004 -2.86993,8.4634 -5.81836,10.20508 -3.17018,1.87271 -8.93551,1.75624 -12.22266,-0.24804 -8.14508,-4.96634 -6.38673,-17.82935 2.85352,-20.87891 0.90638,-0.29913 1.82341,-0.47121 2.73437,-0.5293 z m 35.55469,6.02539 c 4.27271,-0.29439 8.69428,1.89707 11.03125,6.72461 2.99588,6.18864 0.97995,12.20374 -5.13281,15.32227 -3.67615,1.87541 -5.99471,1.98371 -9.46485,0.4414 -5.82808,-2.5903 -8.55059,-8.51439 -6.57421,-14.30664 1.74311,-5.10866 5.86791,-7.88724 10.14062,-8.18164 z" /></g></g></svg>
